<?xml version="1.0" standalone="no"?>
<!DOCTYPE svg PUBLIC "-//W3C//DTD SVG 20010904//EN"
 "http://www.w3.org/TR/2001/REC-SVG-20010904/DTD/svg10.dtd">
<svg version="1.0" xmlns="http://www.w3.org/2000/svg"
 width="700.000000pt" height="700.000000pt" viewBox="0 0 700.000000 700.000000"
 preserveAspectRatio="xMidYMid meet">
<metadata>
Created by potrace 1.14, written by Peter Selinger 2001-2017
</metadata>
<g transform="translate(0.000000,700.000000) scale(0.100000,-0.100000)"
fill="#000000" stroke="none">
<path d="M3279 6206 c-2 -2 -33 -7 -69 -10 -278 -26 -600 -118 -880 -252 -665
-319 -1164 -886 -1400 -1594 -41 -122 -87 -306 -96 -385 -3 -22 -9 -58 -14
-80 -23 -103 -32 -460 -16 -635 45 -507 254 -1031 570 -1430 201 -254 464
-483 751 -657 60 -36 262 -136 340 -168 173 -72 456 -153 590 -170 28 -4 61
-8 75 -11 83 -14 180 -19 375 -19 236 0 325 7 465 35 25 5 59 11 75 14 17 2
59 11 95 20 791 203 1423 709 1781 1426 69 138 134 298 164 405 9 33 23 78 30
101 15 44 53 234 61 299 3 22 7 47 9 55 18 63 25 433 11 595 -6 79 -13 122
-41 285 -3 19 -17 78 -30 130 -96 377 -258 709 -500 1020 -112 144 -227 262
-411 420 -50 44 -235 174 -314 221 -316 190 -682 320 -1030 365 -14 2 -43 6
-65 10 -43 7 -520 16 -526 10z m498 -199 c5 -3 33 -8 63 -12 342 -39 743 -190
1055 -398 409 -272 741 -673 931 -1127 57 -137 129 -374 147 -485 3 -16 8 -48
12 -70 3 -22 8 -51 11 -65 26 -145 25 -580 -2 -714 -2 -12 -9 -50 -15 -86 -44
-278 -176 -619 -339 -881 -127 -203 -342 -452 -505 -585 -33 -27 -69 -57 -80
-67 -26 -23 -187 -135 -240 -166 -219 -128 -400 -208 -614 -271 -114 -33 -263
-65 -357 -75 -32 -3 -62 -9 -67 -12 -15 -9 -426 -12 -502 -3 -38 5 -92 11
-120 14 -53 6 -58 7 -175 31 -465 95 -912 337 -1255 680 -140 140 -152 154
-243 277 -203 274 -345 574 -426 896 -27 105 -29 117 -53 272 -24 153 -22 661
2 700 2 3 6 24 8 45 3 22 8 51 11 65 3 14 8 36 10 50 25 151 140 478 222 626
83 153 103 187 155 264 89 131 184 245 304 365 115 115 130 128 235 211 356
281 851 480 1290 519 41 4 77 8 78 10 6 6 449 -2 459 -8z"/>
<path d="M3338 5825 c-2 -1 -37 -6 -78 -9 -64 -6 -175 -23 -257 -40 -67 -14
-230 -62 -312 -93 -398 -149 -733 -389 -1006 -724 -235 -288 -412 -679 -480
-1059 -22 -123 -30 -225 -30 -395 0 -191 9 -294 36 -435 120 -616 457 -1131
975 -1493 45 -31 85 -57 89 -57 4 0 19 -8 33 -19 94 -66 336 -174 506 -225
254 -77 455 -105 726 -101 102 2 194 5 205 8 11 3 47 8 80 12 33 3 103 15 154
27 343 73 651 214 925 421 115 87 111 83 231 202 188 186 301 339 431 580 104
194 201 482 230 680 2 17 7 44 9 60 26 150 26 588 0 667 -2 7 -6 31 -9 53 -13
104 -58 274 -111 422 -78 216 -224 472 -378 663 -139 171 -376 381 -570 503
-200 128 -518 259 -707 293 -14 3 -41 9 -60 14 -98 25 -271 43 -442 45 -103 1
-188 1 -190 0z m300 -370 c99 -54 187 -158 241 -284 39 -92 54 -153 67 -276 6
-55 4 -1349 -2 -1390 -30 -203 -125 -380 -248 -464 -83 -56 -189 -77 -235 -45
-48 34 -65 126 -35 190 20 41 31 48 104 63 30 7 72 23 92 38 70 48 131 167
143 280 5 52 7 1313 1 1338 -35 167 -113 278 -214 309 -154 45 -294 -96 -318
-321 -4 -32 -6 -208 -6 -392 0 -359 -3 -389 -50 -424 -34 -26 -75 -13 -106 33
l-23 34 4 426 c3 399 5 430 25 505 41 152 135 298 229 357 72 45 114 57 198
54 67 -1 88 -6 133 -31z m-75 -1587 c27 -36 33 -100 13 -152 -18 -46 -38 -60
-103 -72 -129 -23 -215 -138 -240 -318 -3 -22 -6 -305 -5 -627 0 -569 1 -589
22 -665 32 -117 77 -183 155 -230 109 -64 233 -13 309 127 50 90 55 134 56
474 0 172 5 327 10 345 20 70 86 103 126 63 41 -41 44 -70 45 -400 0 -188 -4
-347 -11 -388 -37 -233 -141 -404 -292 -479 -65 -33 -75 -35 -151 -32 -65 2
-93 8 -133 29 -102 52 -198 168 -253 308 -58 145 -62 201 -61 861 1 709 7 783
81 931 73 148 196 249 318 264 25 3 48 7 50 9 7 7 44 -21 64 -48z"/>
</g>
</svg>
